<svg width="24" height="28" viewBox="0 0 24 28" fill="none" xmlns="http://www.w3.org/2000/svg">
<g clip-path="url(#clip0_520_4302)">
<path d="M23.6243 2.07781C23.6134 2.05605 23.588 2.04155 23.5625 2.0488C23.3408 2.14308 23.119 2.22285 22.89 2.30625C22.2611 2.53831 21.6068 2.6906 20.9524 2.84289C20.2036 3.00969 19.4402 3.12935 18.695 3.31428C18.0516 3.47019 17.4118 3.65875 16.7938 3.90531C16.3285 4.08661 15.8705 4.28242 15.4415 4.53261C14.9326 4.81181 14.5218 5.22881 14.1219 5.64217C13.7548 6.02653 13.384 6.41088 13.0605 6.83512C12.8787 7.07444 12.726 7.33551 12.5806 7.59659C12.8096 6.7336 13.1295 5.86336 13.7148 5.17442C13.7584 5.12003 13.7075 5.05476 13.6457 5.08377C13.4967 5.15629 13.3585 5.25056 13.2168 5.33759C12.1335 6.07004 11.1665 6.98017 10.3341 7.98457C9.92693 8.48133 9.53433 8.98897 9.2108 9.54375C8.83638 10.1928 8.55283 10.8926 8.34926 11.6142C8.32745 11.1863 8.3638 10.7585 8.42197 10.3342C8.43287 10.2581 8.44378 10.1856 8.44741 10.1094C8.44741 10.0586 8.46195 9.98612 8.41106 9.95711C8.37471 9.93898 8.33836 9.95711 8.31291 9.98612C8.28019 10.0188 8.25475 10.055 8.22567 10.0913C8.1675 10.1674 8.10934 10.2472 8.05481 10.327C7.87305 10.5844 7.70947 10.8564 7.5677 11.1392C7.21872 11.8535 6.89882 12.5751 6.57529 13.3003C6.24813 14.0255 5.94641 14.7652 5.63014 15.494C5.32842 16.183 4.99762 16.861 4.65592 17.5318C4.47052 17.8908 4.28149 18.2498 4.05975 18.5906C3.96523 18.7357 3.86708 18.8771 3.7653 19.0149C3.77984 18.9859 3.79438 18.9605 3.80892 18.9315C4.107 18.3477 4.31057 17.724 4.49597 17.0967C4.64864 16.6942 4.80132 16.2917 4.97218 15.9001C5.17211 15.4541 5.35023 15.0009 5.52109 14.544C5.8628 13.681 6.27721 12.8543 6.74978 12.0529C7.05514 11.5344 7.3823 11.0268 7.68039 10.501C7.9603 10.0079 8.18204 9.48573 8.43651 8.98172C8.62554 8.60461 8.8182 8.22751 8.98178 7.83953C9.02904 7.73075 9.0763 7.61834 9.11992 7.50594C9.1381 7.45155 9.15991 7.39353 9.17081 7.33551C9.17081 7.31376 9.17445 7.28838 9.15991 7.26662C9.12719 7.21586 9.06176 7.23399 9.02177 7.26662C8.90545 7.35364 8.79639 7.44429 8.6837 7.53857C8.32018 7.84678 7.94212 8.13686 7.55316 8.41244C8.38561 7.40441 9.2726 6.37462 9.67247 5.10552C9.70155 4.99674 9.78152 4.72479 9.70155 4.63414C9.64702 4.587 9.58522 4.65227 9.55251 4.69216C9.21444 5.11277 8.85819 5.51889 8.46195 5.88511C8.61463 5.6458 8.76004 5.39923 8.8909 5.14541C9.10901 4.71029 9.32349 4.27154 9.50161 3.81829C9.71245 3.26351 9.8724 2.69423 10.0396 2.12857C10.2105 1.51215 10.3632 0.888479 10.5485 0.275684C10.5667 0.217668 10.5849 0.159652 10.5958 0.0980101C10.5958 0.0798801 10.6031 0.0581241 10.5958 0.0399941C10.5849 0.00736005 10.5449 -0.014396 10.5122 -0.00351796C10.4831 0.00373404 10.454 0.0218641 10.4286 0.0436201C10.0578 0.391716 9.727 0.779699 9.37075 1.13867C9.10902 1.407 8.84365 1.67895 8.59282 1.95815C8.08753 2.53106 7.63677 3.15473 7.28052 3.82917C6.95699 4.44196 6.7207 5.10552 6.57529 5.78358C6.37899 6.66833 6.31356 7.57483 6.18996 8.47045C6.04819 8.08247 5.96458 7.67273 5.94641 7.25574C5.93914 7.11795 5.93186 6.97291 5.92459 6.82425C5.92459 6.75535 5.92459 6.60669 5.81917 6.63932C5.78646 6.65745 5.76828 6.69371 5.75011 6.72997C5.71739 6.79524 5.68831 6.86413 5.65923 6.93303C5.56835 7.14334 5.46656 7.34639 5.37205 7.55307C5.10304 8.13323 4.87039 8.73515 4.75043 9.36245C4.64501 9.87734 4.59048 10.4031 4.59048 10.9253C4.59048 11.6577 4.70317 12.3793 4.69954 13.1154C4.4996 12.7926 4.29603 12.4663 4.21242 12.0892C4.1688 11.9115 4.13608 11.7339 4.107 11.5562C4.09973 11.5054 4.08883 11.451 4.08156 11.4003C4.07429 11.364 4.07429 11.3169 4.0452 11.2915C3.97977 11.2407 3.93615 11.3277 3.92161 11.3821C3.79801 11.7737 3.73621 12.1871 3.72167 12.6005C3.7035 13.0175 3.74348 13.4345 3.78347 13.8514C3.81982 14.2285 3.85981 14.6057 3.88526 14.9864C3.86708 15.1242 3.85981 15.262 3.8489 15.3997C3.80528 16.0778 3.72894 16.7559 3.59808 17.4231C3.51083 17.9597 3.39814 18.4891 3.20911 19.004C3.10006 19.3702 2.95828 19.7256 2.78016 20.0628C2.75108 20.1099 2.72563 20.1607 2.70019 20.2078C2.34757 20.8351 2.02404 21.4769 1.66779 22.1006C1.45332 22.4668 1.24611 22.8403 1.05345 23.221C0.911676 23.4676 0.78081 23.7178 0.668119 23.9752C0.569969 24.1928 0.475454 24.414 0.38821 24.6352C0.355493 24.7295 0.260978 24.918 0.311871 25.0123C0.38821 25.0812 0.450008 24.9905 0.497265 24.8926C0.508171 24.8817 0.519076 24.8709 0.526347 24.86C0.555428 24.8201 0.580875 24.7802 0.602686 24.7367C0.660849 24.6388 0.719012 24.5445 0.773539 24.4503C1.01346 24.0333 1.24611 23.6126 1.4824 23.192C1.83501 22.5393 2.22034 21.9048 2.60931 21.2702C2.67474 21.1651 2.73654 21.0599 2.80197 20.9512C2.88195 20.8351 2.96192 20.7227 3.04553 20.6067C3.19457 20.4036 3.35452 20.2078 3.52901 20.0265C3.74348 19.7908 4.01249 19.5624 4.26332 19.363C4.62683 19.0693 4.954 18.7357 5.2739 18.3985C6.01911 17.5899 6.7207 16.7414 7.44774 15.9146C7.93122 15.3345 8.45105 14.7761 9.00723 14.2684C9.41801 13.924 9.84332 13.594 10.2759 13.2785C10.9666 12.7854 11.6936 12.3466 12.3807 11.8463C13.1913 11.2552 13.9838 10.6388 14.7108 9.94624C14.7326 9.92085 14.7581 9.89185 14.7436 9.85559C14.729 9.80845 14.6708 9.8157 14.6309 9.82658C14.4673 9.87009 14.311 9.93536 14.151 9.97524C13.9874 10.0115 13.8202 10.0441 13.6566 10.0731C13.2095 10.1602 12.7515 10.1964 12.2971 10.2001C12.5552 10.1022 12.8169 10.0079 13.0786 9.92085C13.7293 9.72505 14.3873 9.55825 15.0235 9.31894C16.154 8.93095 17.1428 8.23476 18.0479 7.46968C18.2697 7.28475 18.4951 7.09982 18.6986 6.89314C18.735 6.84963 18.7895 6.80974 18.7968 6.7481C18.7968 6.67558 18.7095 6.67558 18.655 6.69008C18.1461 6.79886 17.6335 6.90402 17.1173 6.95841C16.7756 6.99104 16.4194 7.01642 16.0777 6.95478C16.4739 6.83512 16.8738 6.72997 17.2809 6.64657C17.659 6.57043 18.0407 6.49791 18.4078 6.3855C18.9785 6.2187 19.4911 5.89236 19.9273 5.4935C20.1891 5.24331 20.4326 4.97499 20.6725 4.70303C20.927 4.41295 21.156 4.10112 21.425 3.82192C21.7776 3.45206 22.163 3.11485 22.5737 2.81389C22.8791 2.57457 23.2063 2.37151 23.5443 2.17934C23.5698 2.16483 23.5952 2.15758 23.6207 2.14308C23.6425 2.12857 23.6497 2.10319 23.6388 2.07781H23.6243ZM3.75802 19.305C3.75802 19.305 3.75802 19.305 3.75075 19.305H3.75439H3.75802ZM4.62683 15.407C4.90674 14.4932 5.17575 13.5759 5.46656 12.6657C5.7392 11.7339 6.01184 10.802 6.29902 9.87734C6.61891 8.78229 6.87338 7.66911 7.21145 6.57768C7.45137 5.80897 7.72037 5.0475 8.0221 4.30055C8.29473 3.62611 8.60009 2.96255 9.0145 2.36064C8.67643 3.16198 8.32745 3.95608 8.033 4.77193C7.74946 5.48625 7.50953 6.21508 7.30233 6.95478C6.79704 8.59011 6.49168 10.2798 6.00457 11.9188C5.79736 12.644 5.56471 13.3619 5.31388 14.0763C5.13576 14.5875 4.92492 15.0988 4.75043 15.6101C4.36146 16.745 4.00158 17.8908 3.55809 19.0076C3.55082 19.0149 3.54355 19.0221 3.53628 19.0294C3.52174 19.0257 3.5072 19.0294 3.49629 19.033C3.57263 18.7937 3.64533 18.5507 3.70713 18.3078C4.00158 17.336 4.32511 16.3751 4.62683 15.407ZM15.5542 6.49428C15.1325 6.78436 14.7108 7.07444 14.311 7.3899C13.6457 7.9193 12.9987 8.46683 12.3552 9.0216C11.9808 9.3552 11.6427 9.72867 11.2901 10.0876C10.9411 10.4502 10.5885 10.8056 10.2577 11.1827C9.81788 11.6722 9.36711 12.1545 8.94543 12.6621C8.57464 13.0972 8.23657 13.5614 7.90213 14.0255C7.65494 14.3555 7.40411 14.6854 7.17146 15.0263C6.89519 15.4215 6.60801 15.8059 6.33173 16.2011C6.05546 16.6 5.78282 16.9988 5.51382 17.4013C5.34296 17.6551 5.17211 17.9126 4.97218 18.1483C4.73589 18.4275 4.49233 18.7212 4.22333 18.9786C4.12154 19.0693 4.02339 19.1599 3.92524 19.2542C3.92524 19.2542 3.92524 19.2542 3.92161 19.2542C3.87435 19.2433 3.87435 19.1998 3.88526 19.1635C4.07792 18.9496 4.27059 18.7393 4.45962 18.5217C4.68863 18.257 4.89584 17.9742 5.0885 17.6841C6.11362 16.1902 7.14965 14.6999 8.25111 13.2568C8.66189 12.7238 9.0872 12.198 9.54524 11.7048C10.3341 10.8709 11.1484 10.0659 11.9626 9.25367C13.0132 8.20938 14.1328 7.23036 15.3506 6.3855C16.3212 5.73282 17.3536 5.17442 18.4187 4.69216C17.4227 5.22518 16.4921 5.87423 15.5542 6.49791V6.49428Z" fill="white"/>
<path d="M16.4488 24.8416C16.4198 24.9032 16.3798 24.9576 16.3362 25.0084C15.8781 25.4834 15.202 25.73 14.5622 25.8569C13.9151 25.991 13.2499 25.8677 12.6174 25.7263C13.2462 25.2078 13.9515 24.6023 14.0932 23.7574C14.2314 22.7457 13.2753 22.0894 12.3556 22.0459C9.28026 21.9444 6.50298 23.6087 3.89656 25.0483C2.90779 25.5885 1.80632 26.2811 0.63216 26.0092C0.468577 25.962 0.301358 25.8569 0.250466 25.6828C0.254101 25.6357 0.23229 25.5813 0.185032 25.5595C-0.178486 25.487 0.0796121 25.9983 0.246831 26.0889C1.69 26.912 3.69662 25.3855 4.97257 24.7255C6.28851 24.0076 7.64807 23.2824 9.08033 22.8146C10.269 22.4629 11.6758 22.0713 12.9009 22.4013C13.5262 22.5826 14.0133 23.2353 13.8133 23.8879C13.5625 24.6421 12.9118 25.1752 12.3047 25.6466C11.3487 25.4181 10.3563 25.1679 9.36751 25.3093C8.82223 25.4072 8.19334 25.5994 7.9207 26.1216C7.49539 26.9773 8.5605 27.1441 9.17848 27.126C10.3381 27.0897 11.4432 26.6147 12.3593 25.9149C13.3989 26.1868 14.4277 26.2884 15.4419 25.8605C15.8999 25.6502 16.4198 25.4181 16.667 24.9504C16.7433 24.8089 16.5179 24.6929 16.4452 24.8343L16.4488 24.8416ZM9.14576 26.883C8.81132 26.8576 8.22242 26.9048 8.08065 26.5313C8.05884 26.0599 8.58231 25.7843 8.97491 25.6647C9.98185 25.3601 11.0433 25.6139 12.0394 25.846C11.1996 26.4588 10.1927 26.854 9.14576 26.883Z" fill="white"/>
</g>
<defs>
<clipPath id="clip0_520_4302">
<rect width="23.6287" height="27.1334" fill="white"/>
</clipPath>
</defs>
</svg>
