<svg width="88" height="76" viewBox="0 0 88 76" fill="none" xmlns="http://www.w3.org/2000/svg">
<path d="M40 27.8332L11.0817 9.33156C10.2217 8.78135 9.34426 8.73327 8.44947 9.1873C7.55475 9.64132 7.06732 10.3625 6.98718 11.3507C6.90704 11.8689 6.96579 12.3683 7.16343 12.8491C7.36107 13.3298 7.6976 13.7171 8.17301 14.0109L37.9728 33.0495C38.6171 33.4394 39.2937 33.6344 40.0025 33.6344C40.7113 33.6344 41.3862 33.4394 42.0272 33.0495L71.827 14.0109C72.3024 13.7171 72.6456 13.3298 72.8566 12.8491C73.0675 12.3683 73.1196 11.8689 73.0128 11.3507C72.9327 10.3625 72.4452 9.64803 71.5505 9.2074C70.6557 8.76671 69.7783 8.82146 68.9183 9.37167L40 27.8332ZM69.1667 75.7497C63.9637 75.7497 59.538 73.9255 55.8895 70.2771C52.241 66.6285 50.4168 62.2028 50.4168 56.9999C50.4168 51.797 52.241 47.3713 55.8895 43.7227C59.538 40.0742 63.9637 38.25 69.1667 38.25C74.3696 38.25 78.7953 40.0742 82.4439 43.7227C86.0923 47.3713 87.9166 51.797 87.9166 56.9999C87.9166 62.2028 86.0923 66.6285 82.4439 70.2771C78.7953 73.9256 74.3696 75.7498 69.1667 75.7498V75.7497ZM59.8719 58.8428H78.4707C78.9667 58.8428 79.3963 58.6585 79.7595 58.2899C80.1227 57.9214 80.3044 57.4914 80.3044 56.9999C80.3044 56.5084 80.1201 56.0784 79.7516 55.7099C79.3829 55.3413 78.9529 55.157 78.4615 55.157H59.8626C59.3666 55.157 58.937 55.3413 58.5739 55.7099C58.2106 56.0784 58.029 56.5084 58.029 56.9999C58.029 57.4914 58.2132 57.9214 58.5818 58.2899C58.9504 58.6585 59.3804 58.8428 59.8719 58.8428ZM7.94885 63.2498C5.87753 63.2498 4.10437 62.5123 2.62937 61.0372C1.1543 59.5622 0.416763 57.789 0.416763 55.7177V8.28209C0.416763 6.21077 1.1543 4.43761 2.62937 2.96261C4.10437 1.48754 5.87753 0.75 7.94885 0.75H72.0511C74.1225 0.75 75.8956 1.48754 77.3706 2.96261C78.8457 4.43761 79.5832 6.21077 79.5832 8.28209V32.1122C77.9326 31.3804 76.2392 30.8315 74.5031 30.4656C72.767 30.0997 70.9882 29.9167 69.1667 29.9167C61.6221 29.9167 55.2221 32.5444 49.9667 37.7999C44.7112 43.0553 42.0834 49.4553 42.0834 56.9999C42.0834 58.0416 42.1476 59.0832 42.2758 60.1248C42.404 61.1665 42.623 62.2081 42.9328 63.2498H7.94885Z" fill="#D9D9D9"/>
</svg>
