<svg width="200" height="191" viewBox="0 0 200 191" fill="none" xmlns="http://www.w3.org/2000/svg">
<g clip-path="url(#clip0_540_4803)">
<path d="M199.969 15.0434C199.877 14.8912 199.662 14.7897 199.446 14.8405C197.569 15.4999 195.692 16.0579 193.754 16.6413C188.431 18.2645 182.892 19.3298 177.354 20.3951C171.015 21.5618 164.554 22.3988 158.246 23.6924C152.8 24.783 147.385 26.1019 142.154 27.8266C138.215 29.0948 134.338 30.4645 130.708 32.2145C126.4 34.1675 122.923 37.0844 119.538 39.9758C116.431 42.6644 113.292 45.3529 110.554 48.3205C109.015 49.9945 107.723 51.8206 106.492 53.6468C108.431 47.6103 111.138 41.523 116.092 36.7039C116.462 36.3235 116.031 35.8669 115.508 36.0698C114.246 36.5771 113.077 37.2365 111.877 37.8453C102.708 42.9687 94.5231 49.335 87.4769 56.3607C84.0308 59.8355 80.7077 63.3865 77.9692 67.2671C74.8 71.8072 72.4 76.7024 70.6769 81.7497C70.4923 78.7568 70.8 75.7639 71.2923 72.7964C71.3846 72.2637 71.4769 71.7564 71.5077 71.2238C71.5077 70.8687 71.6308 70.3615 71.2 70.1585C70.8923 70.0317 70.5846 70.1585 70.3692 70.3615C70.0923 70.5897 69.8769 70.8434 69.6308 71.097C69.1385 71.6296 68.6462 72.1876 68.1846 72.7456C66.6462 74.5464 65.2615 76.4487 64.0615 78.4271C61.1077 83.4237 58.4 88.4711 55.6615 93.5438C52.8923 98.6165 50.3385 103.791 47.6615 108.889C45.1077 113.708 42.3077 118.451 39.4154 123.143C37.8462 125.654 36.2462 128.165 34.3692 130.549C33.5692 131.564 32.7385 132.553 31.8769 133.517C32 133.314 32.1231 133.136 32.2462 132.934C34.7692 128.85 36.4923 124.487 38.0615 120.1C39.3539 117.284 40.6462 114.469 42.0923 111.73C43.7846 108.61 45.2923 105.439 46.7385 102.244C49.6308 96.207 53.1385 90.4241 57.1385 84.8187C59.7231 81.1917 62.4923 77.6408 65.0154 73.9631C67.3846 70.5136 69.2615 66.8613 71.4154 63.3357C73.0154 60.6979 74.6462 58.0601 76.0308 55.3462C76.4308 54.5853 76.8308 53.799 77.2 53.0127C77.3539 52.6323 77.5385 52.2265 77.6308 51.8206C77.6308 51.6685 77.6615 51.4909 77.5385 51.3387C77.2615 50.9836 76.7077 51.1105 76.3692 51.3387C75.3846 51.9475 74.4615 52.5815 73.5077 53.241C70.4308 55.3969 67.2308 57.426 63.9385 59.3536C70.9846 52.3025 78.4923 45.0993 81.8769 36.222C82.1231 35.4611 82.8 33.5588 82.1231 32.9247C81.6615 32.595 81.1385 33.0515 80.8615 33.3305C78 36.2727 74.9846 39.1135 71.6308 41.6752C72.9231 40.0012 74.1538 38.2765 75.2615 36.501C77.1077 33.4574 78.9231 30.3884 80.4308 27.2179C82.2154 23.3373 83.5692 19.3552 84.9846 15.3985C86.4308 11.0866 87.7231 6.72409 89.2923 2.43764C89.4462 2.03182 89.6 1.626 89.6923 1.19482C89.6923 1.068 89.7539 0.915819 89.6923 0.789001C89.6 0.560728 89.2615 0.408546 88.9846 0.484637C88.7385 0.535365 88.4923 0.662183 88.2769 0.814364C85.1385 3.24927 82.3385 5.96318 79.3231 8.47418C77.1077 10.3511 74.8615 12.2534 72.7385 14.2064C68.4615 18.2138 64.6462 22.5764 61.6308 27.294C58.8923 31.5805 56.8923 36.222 55.6615 40.965C54 47.1537 53.4462 53.4946 52.4 59.7595C51.2 57.0455 50.4923 54.1795 50.3385 51.2626C50.2769 50.2988 50.2154 49.2843 50.1539 48.2444C50.1539 47.7625 50.1539 46.7225 49.2615 46.9508C48.9846 47.0776 48.8308 47.3313 48.6769 47.5849C48.4 48.0415 48.1539 48.5234 47.9077 49.0053C47.1385 50.4764 46.2769 51.8967 45.4769 53.3425C43.2 57.4006 41.2308 61.611 40.2154 65.9989C39.3231 69.6005 38.8615 73.2783 38.8615 76.9306C38.8615 82.0541 39.8154 87.1014 39.7846 92.2503C38.0923 89.9929 36.3692 87.7102 35.6615 85.0724C35.2923 83.8295 35.0154 82.5867 34.7692 81.3439C34.7077 80.9888 34.6154 80.6084 34.5539 80.2533C34.4923 79.9996 34.4923 79.6699 34.2462 79.4924C33.6923 79.1373 33.3231 79.746 33.2 80.1264C32.1539 82.8657 31.6308 85.7572 31.5077 88.6486C31.3539 91.5655 31.6923 94.4823 32.0308 97.3991C32.3385 100.037 32.6769 102.675 32.8923 105.338C32.7385 106.302 32.6769 107.266 32.5846 108.229C32.2154 112.972 31.5692 117.715 30.4615 122.382C29.7231 126.136 28.7692 129.839 27.1692 133.441C26.2462 136.003 25.0462 138.488 23.5385 140.847C23.2923 141.177 23.0769 141.532 22.8615 141.862C19.8769 146.249 17.1385 150.739 14.1231 155.101C12.3077 157.663 10.5539 160.276 8.92309 162.939C7.72309 164.663 6.6154 166.414 5.66155 168.214C4.83078 169.736 4.03078 171.283 3.29232 172.831C3.0154 173.49 2.2154 174.809 2.64616 175.468C3.29232 175.95 3.8154 175.316 4.2154 174.631C4.3077 174.555 4.40001 174.479 4.46155 174.403C4.7077 174.124 4.92309 173.845 5.1077 173.541C5.60001 172.856 6.09232 172.196 6.55386 171.537C8.58463 168.62 10.5539 165.678 12.5539 162.736C15.5385 158.17 18.8 153.732 22.0923 149.293C22.6462 148.558 23.1692 147.822 23.7231 147.061C24.4 146.249 25.0769 145.463 25.7846 144.652C27.0462 143.231 28.4 141.862 29.8769 140.593C31.6923 138.945 33.9692 137.347 36.0923 135.952C39.1692 133.897 41.9385 131.564 44.6462 129.205C50.9539 123.549 56.8923 117.614 63.0462 111.831C67.1385 107.773 71.5385 103.867 76.2462 100.316C79.7231 97.9064 83.3231 95.5983 86.9846 93.3916C92.8308 89.9422 98.9846 86.8732 104.8 83.373C111.662 79.2387 118.369 74.9269 124.523 70.0825C124.708 69.9049 124.923 69.702 124.8 69.4484C124.677 69.1186 124.185 69.1694 123.846 69.2455C122.462 69.5498 121.138 70.0064 119.785 70.2854C118.4 70.539 116.985 70.7673 115.6 70.9702C111.815 71.5789 107.938 71.8325 104.092 71.8579C106.277 71.1731 108.492 70.5136 110.708 69.9049C116.215 68.5353 121.785 67.3685 127.169 65.6945C136.738 62.9806 145.108 58.1108 152.769 52.7591C154.646 51.4655 156.554 50.172 158.277 48.7263C158.585 48.4219 159.046 48.1429 159.108 47.7117C159.108 47.2045 158.369 47.2045 157.908 47.3059C153.6 48.0668 149.262 48.8024 144.892 49.1828C142 49.4111 138.985 49.5886 136.092 49.1575C139.446 48.3205 142.831 47.5849 146.277 47.0015C149.477 46.4689 152.708 45.9616 155.815 45.1754C160.646 44.0086 164.985 41.7259 168.677 38.9359C170.892 37.1858 172.954 35.3089 174.985 33.4066C177.138 31.3775 179.077 29.1963 181.354 27.2433C184.338 24.6562 187.6 22.2974 191.077 20.1922C193.662 18.5182 196.431 17.0978 199.292 15.7535C199.508 15.6521 199.723 15.6014 199.938 15.4999C200.123 15.3985 200.185 15.2209 200.092 15.0434H199.969ZM31.8154 135.546C31.8154 135.546 31.8154 135.546 31.7539 135.546H31.7846H31.8154ZM39.1692 108.28C41.5385 101.888 43.8154 95.4715 46.2769 89.1052C48.5846 82.5867 50.8923 76.0683 53.3231 69.6005C56.0308 61.9407 58.1846 54.1541 61.0462 46.5196C63.0769 41.1425 65.3539 35.8162 67.9077 30.5913C70.2154 25.8736 72.8 21.2321 76.3077 17.0217C73.4462 22.6271 70.4923 28.1817 68 33.8885C65.6 38.8852 63.5692 43.9833 61.8154 49.1575C57.5385 60.5965 54.9539 72.4159 50.8308 83.8803C49.0769 88.953 47.1077 93.975 44.9846 98.9716C43.4769 102.548 41.6923 106.124 40.2154 109.7C36.9231 117.639 33.8769 125.654 30.1231 133.466C30.0615 133.517 30 133.568 29.9385 133.618C29.8154 133.593 29.6923 133.618 29.6 133.644C30.2462 131.97 30.8615 130.27 31.3846 128.571C33.8769 121.774 36.6154 115.052 39.1692 108.28ZM131.662 45.9363C128.092 47.9654 124.523 49.9944 121.138 52.2011C115.508 55.9042 110.031 59.7341 104.585 63.6147C101.415 65.9482 98.5538 68.5606 95.5692 71.0716C92.6154 73.608 89.6308 76.0936 86.8308 78.7315C83.1077 82.1555 79.2923 85.5289 75.7231 89.0798C72.5846 92.1235 69.7231 95.37 66.8923 98.6165C64.8 100.925 62.6769 103.233 60.7077 105.617C58.3692 108.382 55.9385 111.07 53.6 113.835C51.2615 116.625 48.9539 119.415 46.6769 122.23C45.2308 124.006 43.7846 125.806 42.0923 127.455C40.0923 129.408 38.0308 131.462 35.7539 133.263C34.8923 133.897 34.0615 134.531 33.2308 135.191C33.2308 135.191 33.2308 135.191 33.2 135.191C32.8 135.115 32.8 134.81 32.8923 134.557C34.5231 133.06 36.1539 131.589 37.7539 130.067C39.6923 128.216 41.4462 126.238 43.0769 124.208C51.7539 113.759 60.5231 103.334 69.8462 93.2395C73.3231 89.511 76.9231 85.8333 80.8 82.3838C87.4769 76.5502 94.3692 70.9195 101.262 65.238C110.154 57.9333 119.631 51.0851 129.938 45.1754C138.154 40.6099 146.892 36.7039 155.908 33.3305C147.477 37.059 139.6 41.5991 131.662 45.9616V45.9363Z" fill="#5534DA"/>
<path d="M139.231 174.276C138.985 174.707 138.646 175.087 138.277 175.443C134.4 178.765 128.677 180.49 123.262 181.378C117.785 182.316 112.154 181.454 106.8 180.464C112.123 176.837 118.092 172.602 119.292 166.692C120.462 159.616 112.369 155.025 104.585 154.72C78.5539 154.01 55.0462 165.652 32.9846 175.722C24.6154 179.501 15.2923 184.345 5.35386 182.443C3.96924 182.113 2.55386 181.378 2.12309 180.16C2.15386 179.83 1.96924 179.45 1.56924 179.298C-1.50768 178.791 0.676937 182.367 2.09232 183.001C14.3077 188.758 31.2923 178.08 42.0923 173.464C53.2308 168.442 64.7385 163.369 76.8616 160.098C86.9231 157.637 98.8308 154.898 109.2 157.206C114.492 158.474 118.615 163.04 116.923 167.605C114.8 172.881 109.292 176.609 104.154 179.907C96.0616 178.309 87.6616 176.559 79.2923 177.548C74.6769 178.233 69.3539 179.577 67.0462 183.229C63.4462 189.215 72.4616 190.382 77.6923 190.255C87.5077 190.001 96.8616 186.679 104.615 181.783C113.415 183.686 122.123 184.396 130.708 181.403C134.585 179.932 138.985 178.309 141.077 175.037C141.723 174.048 139.815 173.236 139.2 174.225L139.231 174.276ZM77.4154 188.556C74.5846 188.378 69.6 188.708 68.4 186.095C68.2154 182.798 72.6462 180.87 75.9693 180.033C84.4923 177.903 93.4769 179.678 101.908 181.302C94.8 185.588 86.2769 188.353 77.4154 188.556Z" fill="#5534DA"/>
</g>
<defs>
<clipPath id="clip0_540_4803">
<rect width="200" height="189.796" fill="white" transform="translate(0 0.509766)"/>
</clipPath>
</defs>
</svg>
