<svg width="35" height="36" viewBox="0 0 35 36" fill="none" xmlns="http://www.w3.org/2000/svg">
<g clip-path="url(#clip0_494_4219)">
<path d="M34.9945 3.03225C34.9812 3.00574 34.9502 2.98806 34.9191 2.9969C34.6489 3.1118 34.3786 3.20902 34.0995 3.31066C33.3331 3.59349 32.5356 3.7791 31.7381 3.9647C30.8255 4.16798 29.8951 4.31382 28.9869 4.5392C28.2027 4.72922 27.4229 4.95902 26.6698 5.25953C26.1027 5.48048 25.5445 5.71912 25.0217 6.02404C24.4014 6.36432 23.9008 6.87253 23.4134 7.37632C22.966 7.84475 22.5141 8.31319 22.1198 8.83023C21.8983 9.1219 21.7122 9.44008 21.535 9.75826C21.8141 8.70649 22.204 7.64589 22.9172 6.80624C22.9704 6.73995 22.9084 6.66041 22.8331 6.69576C22.6514 6.78415 22.4831 6.89905 22.3103 7.00511C20.99 7.89778 19.8115 9.007 18.797 10.2311C18.3008 10.8365 17.8223 11.4552 17.428 12.1314C16.9717 12.9224 16.6261 13.7753 16.378 14.6547C16.3514 14.1333 16.3957 13.6118 16.4666 13.0948C16.4799 13.0019 16.4932 12.9136 16.4976 12.8208C16.4976 12.7589 16.5153 12.6705 16.4533 12.6352C16.409 12.6131 16.3647 12.6352 16.3337 12.6705C16.2938 12.7103 16.2628 12.7545 16.2274 12.7987C16.1565 12.8915 16.0856 12.9887 16.0191 13.0859C15.7976 13.3997 15.5983 13.7311 15.4255 14.0758C15.0002 14.9464 14.6103 15.8258 14.216 16.7097C13.8172 17.5935 13.4495 18.495 13.0641 19.3833C12.6964 20.2229 12.2932 21.0493 11.8767 21.8668C11.6508 22.3043 11.4204 22.7418 11.1502 23.1573C11.035 23.334 10.9153 23.5064 10.7913 23.6743C10.809 23.6389 10.8267 23.608 10.8445 23.5727C11.2077 22.8612 11.4558 22.1011 11.6818 21.3365C11.8679 20.846 12.054 20.3555 12.2622 19.8782C12.5058 19.3347 12.7229 18.7823 12.9312 18.2254C13.3476 17.1737 13.8527 16.1661 14.4286 15.1894C14.8008 14.5575 15.1995 13.9388 15.5628 13.298C15.904 12.697 16.1742 12.0607 16.4843 11.4464C16.7147 10.9868 16.9495 10.5272 17.1489 10.0543C17.2065 9.92177 17.2641 9.78478 17.3172 9.64778C17.3394 9.58149 17.366 9.51079 17.3793 9.44008C17.3793 9.41356 17.3837 9.38263 17.366 9.35612C17.3261 9.29425 17.2464 9.31634 17.1976 9.35612C17.0558 9.46218 16.9229 9.57266 16.7856 9.68756C16.3426 10.0632 15.8818 10.4167 15.4077 10.7526C16.4223 9.52404 17.5033 8.26899 17.9907 6.72228C18.0261 6.5897 18.1236 6.25826 18.0261 6.14778C17.9596 6.09033 17.8843 6.16988 17.8445 6.21849C17.4324 6.73112 16.9983 7.22606 16.5153 7.6724C16.7014 7.38074 16.8786 7.08023 17.0381 6.77089C17.304 6.24059 17.5653 5.70586 17.7824 5.15346C18.0394 4.47733 18.2343 3.78351 18.4381 3.09412C18.6464 2.34286 18.8324 1.58276 19.0584 0.835914C19.0805 0.765207 19.1027 0.6945 19.116 0.619374C19.116 0.597278 19.1248 0.570762 19.116 0.548666C19.1027 0.508894 19.054 0.482379 19.0141 0.495636C18.9786 0.504475 18.9432 0.526571 18.9122 0.553086C18.4603 0.977328 18.0571 1.45018 17.6229 1.88768C17.304 2.2147 16.9805 2.54614 16.6748 2.88642C16.059 3.58465 15.5096 4.34475 15.0755 5.16672C14.6812 5.91357 14.3932 6.72228 14.216 7.54867C13.9767 8.62695 13.897 9.73175 13.7464 10.8233C13.5736 10.3504 13.4717 9.85106 13.4495 9.34286C13.4407 9.17493 13.4318 8.99816 13.4229 8.81697C13.4229 8.73301 13.4229 8.55182 13.2945 8.59159C13.2546 8.61369 13.2324 8.65788 13.2103 8.70208C13.1704 8.78162 13.135 8.86559 13.0995 8.94955C12.9888 9.20586 12.8647 9.45334 12.7495 9.70523C12.4217 10.4123 12.1381 11.1459 11.9919 11.9104C11.8634 12.5379 11.797 13.1787 11.797 13.8151C11.797 14.7078 11.9343 15.5872 11.9299 16.4843C11.6862 16.091 11.4381 15.6932 11.3362 15.2336C11.2831 15.0171 11.2432 14.8006 11.2077 14.584C11.1989 14.5222 11.1856 14.4559 11.1767 14.394C11.1679 14.3498 11.1679 14.2924 11.1324 14.2614C11.0527 14.1995 10.9995 14.3056 10.9818 14.3719C10.8312 14.8492 10.7558 15.353 10.7381 15.8567C10.716 16.365 10.7647 16.8732 10.8134 17.3814C10.8577 17.841 10.9065 18.3006 10.9375 18.7646C10.9153 18.9325 10.9065 19.1004 10.8932 19.2684C10.84 20.0948 10.747 20.9211 10.5875 21.7343C10.4812 22.3883 10.3438 23.0335 10.1134 23.661C9.98053 24.1074 9.80775 24.5405 9.59066 24.9514C9.55522 25.0089 9.5242 25.0708 9.49319 25.1282C9.06344 25.8927 8.66914 26.6749 8.23496 27.435C7.97357 27.8814 7.72104 28.3365 7.48623 28.8006C7.31344 29.1011 7.15395 29.406 7.01661 29.7198C6.89699 29.9849 6.7818 30.2545 6.67547 30.524C6.6356 30.6389 6.52041 30.8687 6.58243 30.9836C6.67547 31.0676 6.75079 30.9571 6.80838 30.8378C6.82167 30.8246 6.83496 30.8113 6.84382 30.798C6.87927 30.7494 6.91028 30.7008 6.93686 30.6478C7.00775 30.5285 7.07863 30.4136 7.14509 30.2987C7.4375 29.7905 7.72104 29.2778 8.00901 28.7652C8.43876 27.9698 8.90838 27.1964 9.38243 26.423C9.46218 26.2949 9.5375 26.1667 9.61724 26.0341C9.71471 25.8927 9.81218 25.7557 9.91408 25.6143C10.0957 25.3668 10.2907 25.1282 10.5033 24.9073C10.7647 24.62 11.0926 24.3416 11.3983 24.0985C11.8413 23.7406 12.24 23.334 12.6299 22.923C13.5381 21.9376 14.3932 20.9035 15.2793 19.8959C15.8685 19.1888 16.5021 18.5083 17.1799 17.8896C17.6805 17.4698 18.1989 17.0676 18.7261 16.6831C19.5679 16.0821 20.454 15.5474 21.2913 14.9376C22.2793 14.2172 23.2451 13.466 24.1312 12.6219C24.1577 12.591 24.1888 12.5556 24.171 12.5114C24.1533 12.454 24.0824 12.4628 24.0337 12.4761C23.8343 12.5291 23.6438 12.6086 23.4489 12.6573C23.2495 12.7014 23.0457 12.7412 22.8464 12.7766C22.3014 12.8826 21.7432 12.9268 21.1894 12.9312C21.504 12.8119 21.8229 12.697 22.1419 12.591C22.935 12.3523 23.7369 12.149 24.5122 11.8574C25.89 11.3845 27.0951 10.536 28.1983 9.60359C28.4685 9.37821 28.7432 9.15283 28.9913 8.90094C29.0356 8.84791 29.1021 8.7993 29.1109 8.72417C29.1109 8.63579 29.0046 8.63579 28.9381 8.65346C28.3179 8.78604 27.6932 8.9142 27.0641 8.98048C26.6476 9.02026 26.2134 9.05119 25.797 8.97606C26.2799 8.83023 26.7672 8.70208 27.2634 8.60043C27.7242 8.50763 28.1894 8.41925 28.6369 8.28225C29.3324 8.07897 29.9571 7.68124 30.4888 7.19513C30.8077 6.89021 31.1046 6.56319 31.397 6.23175C31.7071 5.87821 31.9862 5.49816 32.3141 5.15788C32.7438 4.70713 33.2134 4.29614 33.7141 3.92935C34.0862 3.63768 34.485 3.39021 34.897 3.15599C34.928 3.13831 34.959 3.12947 34.99 3.1118C35.0166 3.09412 35.0255 3.06319 35.0122 3.03225H34.9945ZM10.7824 24.0278C10.7824 24.0278 10.7824 24.0278 10.7736 24.0278H10.778H10.7824ZM11.8413 19.2772C12.1824 18.1636 12.5103 17.0455 12.8647 15.9363C13.197 14.8006 13.5293 13.6648 13.8793 12.5379C14.2691 11.2033 14.5793 9.84665 14.9913 8.51647C15.2837 7.5796 15.6115 6.65157 15.9793 5.74122C16.3115 4.91925 16.6837 4.11054 17.1888 3.37695C16.7767 4.35359 16.3514 5.32139 15.9926 6.31571C15.647 7.18629 15.3546 8.07455 15.1021 8.97606C14.4862 10.9691 14.1141 13.0285 13.5204 15.0259C13.2679 15.9098 12.9843 16.7848 12.6786 17.6554C12.4615 18.2785 12.2046 18.9016 11.9919 19.5247C11.5179 20.9079 11.0793 22.3043 10.5388 23.6655C10.5299 23.6743 10.521 23.6831 10.5122 23.692C10.4945 23.6876 10.4767 23.692 10.4634 23.6964C10.5565 23.4047 10.6451 23.1086 10.7204 22.8126C11.0793 21.6282 11.4736 20.4571 11.8413 19.2772ZM25.159 8.41483C24.6451 8.76836 24.1312 9.1219 23.6438 9.50637C22.8331 10.1516 22.0445 10.8189 21.2603 11.495C20.804 11.9016 20.3919 12.3567 19.9622 12.7942C19.5369 13.2362 19.1071 13.6692 18.704 14.1288C18.1679 14.7254 17.6185 15.3132 17.1046 15.9319C16.6527 16.4622 16.2407 17.0278 15.8331 17.5935C15.5318 17.9956 15.2261 18.3978 14.9426 18.8132C14.6058 19.2949 14.2558 19.7633 13.9191 20.245C13.5824 20.7311 13.2502 21.2172 12.9223 21.7078C12.7141 22.0171 12.5058 22.3309 12.2622 22.6181C11.9742 22.9584 11.6774 23.3163 11.3495 23.6301C11.2255 23.7406 11.1058 23.8511 10.9862 23.966C10.9862 23.966 10.9862 23.966 10.9818 23.966C10.9242 23.9527 10.9242 23.8997 10.9375 23.8555C11.1723 23.5948 11.4071 23.3384 11.6375 23.0733C11.9166 22.7507 12.1691 22.406 12.404 22.0525C13.6533 20.2317 14.916 18.4155 16.2584 16.6566C16.759 16.007 17.2774 15.3662 17.8356 14.7652C18.797 13.7488 19.7894 12.7677 20.7818 11.7778C22.0622 10.5051 23.4267 9.31192 24.9109 8.28225C26.0938 7.4868 27.3521 6.80624 28.6502 6.21849C27.4362 6.86811 26.3021 7.65915 25.159 8.41925V8.41483Z" fill="#5534DA"/>
<path d="M26.2493 30.7759C26.2138 30.851 26.1651 30.9173 26.1119 30.9792C25.5537 31.5581 24.7296 31.8586 23.9499 32.0132C23.1613 32.1768 22.3505 32.0265 21.5796 31.8542C22.3461 31.2222 23.2056 30.4842 23.3784 29.4545C23.5467 28.2216 22.3815 27.4217 21.2607 27.3687C17.5126 27.2449 14.1277 29.2733 10.9512 31.0278C9.7461 31.6862 8.40369 32.5303 6.97268 32.1989C6.77331 32.1414 6.56951 32.0132 6.50749 31.8011C6.51192 31.7437 6.48534 31.6774 6.42774 31.6509C5.9847 31.5625 6.29926 32.1856 6.50306 32.2961C8.26192 33.2992 10.7075 31.4388 12.2626 30.6345C13.8663 29.7595 15.5233 28.8756 17.2689 28.3055C18.7176 27.8769 20.4322 27.3996 21.9252 27.8018C22.6872 28.0227 23.2809 28.8182 23.0372 29.6136C22.7315 30.5328 21.9385 31.1824 21.1986 31.7569C20.0334 31.4785 18.8239 31.1736 17.6189 31.346C16.9543 31.4653 16.1879 31.6995 15.8556 32.3358C15.3372 33.3788 16.6353 33.5821 17.3885 33.56C18.8018 33.5158 20.1486 32.9369 21.2651 32.084C22.5322 32.4154 23.786 32.5391 25.022 32.0177C25.5803 31.7614 26.2138 31.4785 26.5151 30.9084C26.6081 30.7361 26.3334 30.5947 26.2448 30.767L26.2493 30.7759ZM17.3486 33.2639C16.941 33.2329 16.2233 33.2904 16.0505 32.8352C16.0239 32.2607 16.6619 31.9249 17.1404 31.779C18.3676 31.4078 19.6613 31.7172 20.8752 32C19.8518 32.7468 18.6246 33.2285 17.3486 33.2639Z" fill="#5534DA"/>
</g>
<defs>
<clipPath id="clip0_494_4219">
<rect width="28.7975" height="33.0688" fill="white" transform="translate(6.20215 0.5)"/>
</clipPath>
</defs>
</svg>
